<svg xmlns="http://www.w3.org/2000/svg" xmlns:xlink="http://www.w3.org/1999/xlink" width="400" height="400" viewBox="0 0 400 400">
<rect data-name="background" width="100%" height="100%" fill="#000000"/><g data-name="container" data="container_num:5" fill="#FFFFFF" transform="translate(12.340951578243676, 138.4716254522576) scale(0.6508212091876648)"><path xmlns="http://www.w3.org/2000/svg" d="M17.914 148.907zM22.657 154.94a90.586 90.586 0 0 0 5.861 6.251c6.914 6.805 15.159 12.525 24.004 16.851 3.259 1.526 6.265 3.107 9.787 4.468.88.338 1.779.7 2.724 1.026.953.302 1.941.604 2.974.903 1.027.321 2.122.549 3.267.786 1.146.23 2.336.493 3.614.624a91.24 91.24 0 0 1-18.434-5.99 93.833 93.833 0 0 1-16.873-9.842c-10.548-7.727-19.57-17.648-26.16-28.989-.272-.339-.685-.985-1.18-1.808l-.796-1.348-.803-1.551c-.534-1.076-1.149-2.168-1.62-3.226a71.281 71.281 0 0 0-1.326-2.748c2.048 5.101 4.412 9.563 7.059 13.806a93.473 93.473 0 0 0 3.869 5.697c-.192-.259-.392-.511-.583-.771a95.012 95.012 0 0 0 4.6 5.841l.016.02zM18.039 149.078l-.125-.17.125.17zM1.335 106.042l-.483-3.875c.256 2.365.553 5.008 1.096 7.654l-.327-1.879a23.961 23.961 0 0 1-.286-1.9zM85.812 185.575c6.652.673 13.628.472 20.461-.609 6.837-1.077 13.524-2.987 19.741-5.449-11.45 4.503-23.602 6.506-35.49 6.171-1.591-.025-3.159 0-4.712-.113z"/><path xmlns="http://www.w3.org/2000/svg" d="M46.426 171.967l-.259-.165c.087.055.172.111.259.165zM46.167 171.802zM43.653 170.135zM56.077 177.284A83.837 83.837 0 0 0 73.2 183.1c-9.688-2.21-18.805-6.109-26.774-11.133 3.06 1.947 6.277 3.749 9.651 5.317zM177.002 107.094c.098-1.58.296-3.238.346-4.027.594-5.071.77-9.401.745-13.745-.11-.783-.425-2.25-.55-3.918-.153-1.672-.378-3.309-.568-4.924-.289-1.601-.538-3.186-.854-4.74 2.275 11.617 2.237 23.279.144 34.282a94.97 94.97 0 0 1 .737-2.928z"/><path xmlns="http://www.w3.org/2000/svg" d="M.887 83.482c.848-6.9 2.653-13.626 4.37-18.107l-.695 3.28c.429-.961 1.122-3.194 2.067-5.557l.682-1.802.753-1.747c.5-1.131.92-2.203 1.363-3.025-.303.771-.595 1.602-.947 2.436-.345.837-.732 1.687-1.101 2.542l1.514-3.409A111.863 111.863 0 0 0 4.954 69.8c-1.133 4.352-2.029 8.926-2.511 13.032-.14 1.024-.189 2.024-.28 2.978-.067.954-.183 1.864-.192 2.724-.042 1.719-.1 3.224-.071 4.428.105 2.409.25 3.61.459 2.939.411-1.333.403-8.188 1.837-16.767.767-4.276 1.868-8.966 3.362-13.561 1.483-4.599 3.427-9.058 5.44-12.992l-.592 1.292-.545 1.331-1.116 2.691-1.024 2.78-.521 1.402c-.153.476-.308.954-.461 1.434-1.32 3.807-2.307 7.816-3.167 11.857l-.559 3.052c-.205 1.014-.292 2.046-.444 3.067-.318 2.041-.434 4.097-.611 6.129-.199 4.074-.239 8.098.13 11.946-.015-.914-.03-1.726-.017-2.512l.115-2.355c.048-.809.039-1.667.115-2.65.07-.983.134-2.091.19-3.402.391-6.608 1.572-13.15 3.408-19.481 1.75-6.358 3.814-11.957 6.889-17.03l.801-1.526c.542-1.024.993-2.034 1.566-3.064.653-1.13 1.278-1.976 1.784-2.751.521-.767.963-1.441 1.469-2.095l3.682-5.082c.075-.009-.022.185-.2.473a28.962 28.962 0 0 1 1.959-2.49c.755-.875 1.488-1.803 2.109-2.569.146-.007.288-.011.623-.251 8.65-9.197 19.295-16.692 31.291-21.417l2.667-1.039 2.7-.899 1.343-.448 1.36-.38 2.71-.753c1.55-.373 3.12-.751 4.721-1.091l2.437-.426c.819-.141 1.642-.3 2.484-.378 1.674-.201 3.134-.625 3.921-.729 4.369-.249 8.73-.199 13.849.216.397.007 1.015.043 1.732.082.717.041 1.537.061 2.332.134.932.21 1.927.418 2.971.621 6.369.988 12.527 2.754 18.386 5.103l-.007-.028 2.244.894 2.29 1.058c1.571.684 3.11 1.559 4.7 2.383.798.407 1.554.904 2.338 1.354.77.474 1.576.894 2.32 1.412 1.508 1.002 3.037 1.961 4.446 3.032a99.912 99.912 0 0 1 6.6 5.198c.046.042.094.081.14.122l.042.038 1.457 1.322 1.394 1.391 1.395 1.392c.462.467.89.967 1.337 1.449-.216-.35-.208-.491-.2-.63-.689-.66-1.504-1.441-2.309-2.21 1.343 1.222 2.515 2.327 3.477 3.229.371.474.776.94 1.16 1.449l1.186 1.566 1.261 1.629 1.255 1.752c2.226 2.838 4.191 5.874 6.057 8.97.864 1.588 1.817 3.131 2.586 4.774l1.213 2.436 1.092 2.497c.314.533.192.022.231-.068 1.225 2.962 2.21 6.042 3.102 9.146a88.212 88.212 0 0 1 3.408 17.211c.225 1.378.321 2.772.52 4.153l-.123 2.924c-.001 1.103.057 2.206.01 3.311l-.128 3.326c-.016.75-.124 1.569-.187 2.459-.084.888-.128 1.846-.256 2.856l-.412 3.192c-.132 1.119-.387 2.269-.583 3.471a90.635 90.635 0 0 1-4.312 15.482c-.242.826-.427 1.486-.592 1.855-.627 1.501-1.296 2.954-1.942 4.385-.723 1.394-1.386 2.788-2.127 4.108a86.09 86.09 0 0 1-7.949 12.379c-.336.439-.649.885-.987 1.297l-.998 1.206c-.66.779-1.25 1.558-1.876 2.234-1.251 1.352-2.301 2.606-3.286 3.549-1.128 1.178-1.027 1.233-.246.665a35.07 35.07 0 0 0 1.608-1.262l2.122-1.914c.776-.677 1.519-1.441 2.235-2.161.708-.725 1.416-1.386 1.962-1.984 1.101-1.191 1.824-1.926 1.67-1.599-1.777 3.345-5.013 7.471-9.743 12.035-2.413 2.227-5.128 4.647-8.339 6.98-1.566 1.221-3.307 2.338-5.082 3.558-1.834 1.123-3.708 2.353-5.757 3.445-4.484 2.442 3.365-1.475 3.577-1.512a22.87 22.87 0 0 1-2.377 1.64c-1.478.786-2.943 1.597-4.474 2.273-.895.411-1.774.855-2.679 1.239l-2.729 1.122 1.444-.568c2.952-1.173 5.711-2.555 8.202-3.922-.936.566-1.96 1.221-3.082 1.812-1.203.622-2.448 1.302-3.697 1.909l-3.625 1.686c12.968-4.711 24.885-12.507 34.319-22.67 4.723-5.066 8.935-10.631 12.369-16.651a93.904 93.904 0 0 0 8.288-18.999c-3.154 9.93-8.071 19.052-13.981 26.765 10.744-14.507 17.15-32.293 17.999-50.636-.001 1.011-.101 2.018-.168 3.025-.083 1.007-.123 2.018-.241 3.022-.257 2.005-.441 4.021-.827 6.009-.624 4-1.636 7.931-2.782 11.815 2.262-7.021 3.613-14.424 4.145-21.869.554-7.451.092-14.947-1.057-22.211 1.974 9.622 2.301 20.524.619 31.298 1.182-6.949 1.482-14.112 1.028-21.214-.102-2.713-.422-5.407-.685-7.901-.377-2.476-.662-4.762-1.027-6.611 1.445 6.826 2.015 12.648 2.293 18.136-.267-11.977-2.748-24.112-7.62-35.511 2.659 6.191 4.842 12.851 6.175 19.698 1.34 6.84 1.897 13.838 1.58 20.57-.015-.788.018-1.575-.028-2.366l-.107-2.391c.287 10.85-1.384 21.604-4.696 31.717-1.662 5.056-3.715 9.969-6.2 14.644a95.521 95.521 0 0 1-8.56 13.316c3.673-4.29 7.551-10.354 10.646-17.015 3.081-6.675 5.368-13.894 6.941-20.199-2.314 11.322-6.907 22.494-13.571 32.471-6.646 9.985-15.351 18.764-25.423 25.502-10.06 6.759-21.474 11.437-33.187 13.748a94.608 94.608 0 0 1-17.657 1.809 94.462 94.462 0 0 1-17.361-1.515l3.005.571c1.002.19 2.018.295 3.026.445 2.016.324 4.055.446 6.087.633 4.073.229 8.168.306 12.25-.005 4.089-.217 8.152-.827 12.196-1.572 2.006-.456 4.036-.829 6.017-1.414.994-.278 2-.521 2.987-.83l2.955-.958c-1.492.462-3.062 1.074-4.739 1.523l-2.101.618a91.772 91.772 0 0 0 12.91-4.496 89.46 89.46 0 0 0 5.651-2.705 96.653 96.653 0 0 1-10.714 4.872 98.407 98.407 0 0 1-21.66 5.382c-1.11.176-2.122.231-3.029.326l-2.428.24c-1.429.113-2.484.164-3.222.245-1.477.147-1.687.284-1.099.397.587.113 1.971.203 3.673.251 1.697-.01 3.71-.101 5.541-.268 18.397-1.887 35.288-9.107 48.824-19.916 13.545-10.811 23.919-25.172 29.701-41.467.363-.946.642-1.922.944-2.89.293-.971.617-1.932.882-2.912.491-1.97 1.072-3.917 1.448-5.917l.619-2.985.487-3.012.241-1.507.172-1.517.342-3.034c.698-8.114.422-16.315-.812-24.363-.66-4.554-1.82-9.961-3.315-14.777l-1.15-3.484c-.4-1.107-.825-2.151-1.203-3.133l-.557-1.415-.571-1.271-.981-2.124c-3.134-6.359-7.072-12.424-11.682-18.065-4.605-5.643-9.896-10.868-15.861-15.418l-2.244-1.703-2.327-1.608-1.166-.806-1.203-.756-2.417-1.508c-3.295-1.904-6.67-3.739-10.228-5.261-3.521-1.598-7.206-2.895-10.957-4.055-1.895-.52-3.781-1.1-5.724-1.499-.968-.209-1.928-.463-2.907-.638l-2.944-.521C100.363.01 93.04-.285 85.724.265 78.412.83 71.069 2.218 64.028 4.614l-2.635.913c-.881.297-1.73.682-2.597 1.019-.858.359-1.735.673-2.577 1.069l-2.532 1.173c-.852.376-1.675.808-2.496 1.245l-2.469 1.297-2.402 1.412c-.8.472-1.606.933-2.372 1.458l-2.324 1.528c-.782.497-1.506 1.078-2.261 1.612-.741.554-1.51 1.07-2.226 1.654l-2.157 1.737c-.729.565-1.417 1.178-2.103 1.792l-2.063 1.83-1.971 1.919c-.656.639-1.319 1.271-1.93 1.951-5.031 5.298-9.451 11.078-13.066 17.194A99.518 99.518 0 0 0 5.18 64.379C.805 77.299-.45 90.402.134 102.237c-.126-4.872-.147-11.859.753-18.755zm141.132 90.446a96.807 96.807 0 0 0 8.765-6.389c-2.84 2.339-5.758 4.499-8.765 6.389zm40.217-54.282c-.299.901-.552 1.791-.882 2.641l-.957 2.523-.466 1.248-.513 1.231a108.54 108.54 0 0 0-.997 2.501 97.307 97.307 0 0 1-6.587 13.35c-2.521 4.275-5.443 8.281-8.565 12.04-1.542 1.899-3.222 3.66-4.874 5.421l-2.581 2.523c-.847.848-1.774 1.604-2.652 2.404-.736.64-1.478 1.266-2.225 1.882a90.696 90.696 0 0 0 7.896-7.312 89.808 89.808 0 0 1-11.689 10.188c-1.036.722-2.037 1.496-3.113 2.176l-3.247 2.069-3.43 1.949c-1.167.648-2.399 1.224-3.634 1.855a74.206 74.206 0 0 1 2.685-1.508c1.021-.567 2.092-1.237 3.138-1.85 1.054-.601 2.012-1.261 2.808-1.813.796-.552 1.42-1.01 1.745-1.306-.464.315-.936.617-1.406.924a92.477 92.477 0 0 0 1.507-1.015c-.021.023-.065.059-.101.091 10.932-7.466 20.245-17.277 27.223-28.462 7.009-11.175 11.57-23.781 13.46-36.601-.41 5.142-1.352 9.248-2.543 12.851zm-6.654-65.352zm-8.448-12.698a92.37 92.37 0 0 1 7.773 14.352c.25.549.486 1.106.719 1.664 4.963 12.154 7.221 25.192 6.89 38.036.084-4.25-.198-8.498-.669-12.71-.533-4.854-1.518-9.65-2.824-14.341-2.562-9.407-6.723-18.323-12.005-26.451.485.67.996 1.396 1.525 2.166a32.826 32.826 0 0 1 1.59 2.463l-.638-1.109-.689-1.079-1.378-2.156c-.938-1.424-1.955-2.796-2.934-4.192-1.062-1.334-2.069-2.712-3.174-4.011-.836-.953-1.637-1.938-2.485-2.879 2.992 3.155 5.801 6.54 8.299 10.247zM96.886 1.152c1.467.078 2.937.221 4.407.331 1.204.101 2.402.279 3.588.413.356.015.732.039 1.204.092.471.065 1.034.186 1.769.354 5.469.912 10.459 2.283 14.001 3.699 6.798 2.573 13.123 5.774 18.86 9.471 5.739 3.69 10.889 7.887 15.246 12.471 2.008 2.179 1.422 1.704.315.646l1.662 1.764c-.736-.734-1.459-1.478-2.206-2.196l-2.301-2.09c.56.49 1.918 1.663 2.845 2.522-7.389-7.539-16.026-13.799-25.375-18.404-9.356-4.603-19.431-7.446-29.502-8.581 1.618.18 2.412.22 3.168.24-1.085-.127-2.173-.301-3.274-.401-1.479-.097-2.955-.229-4.423-.301l-4.36-.103c1.444-.001 2.907.039 4.376.073z"/><path xmlns="http://www.w3.org/2000/svg" d="M115.942 184.69l.426-.125c-.446.12-.885.252-1.334.366.304-.076.609-.15.908-.241zM160.424 146.151c4.235-5.587 7.977-12.263 10.366-18.014l-.029.006c-6.061 14.322-15.892 26.66-28.16 35.744a159.12 159.12 0 0 0 6.418-4.703c2.698-2.82 7.213-7.406 11.405-13.033zM35.35 162.846c7.172 6.412 15.821 11.992 25.448 15.751 3.754 1.413 7.585 2.651 11.503 3.523 1.944.502 3.929.812 5.899 1.181.987.175 1.987.272 2.979.412.994.129 1.986.275 2.987.333-4.519-.501-9.005-1.251-13.372-2.44-4.364-1.185-8.642-2.65-12.769-4.449a97.4 97.4 0 0 1-11.894-6.314c-3.786-2.408-7.376-5.097-10.781-7.997zM123.877 174.277l-2.219.871-2.266.756c-1.5.54-3.047.944-4.59 1.373 1.551-.39 3.111-.754 4.624-1.254l2.283-.698 2.23-.815c-.086-.044-.594.055-.062-.233zM97.683 179.965c-1.16.099-2.326.09-3.494.102-1.168.014-2.338.039-3.509-.038l1.576.148c.482.031.916.068 1.295.113 1.381-.118 2.752-.151 4.132-.325zM51.441 169.209c1.341.787 2.765 1.48 4.178 2.244.354.194.996.415 1.801.709-1.721-.739-3.37-1.655-5.046-2.505-.83-.441-1.629-.935-2.443-1.395-.812-.464-1.621-.927-2.389-1.445l.937.626.977.584 1.985 1.182z"/></g><g data-name="icon" fill="#FFFFFF" data="id:7436269" transform="translate(32.02160448540346, 159.14113126744158) scale(0.8171818012188479)">
  
 <path d="m64.023 66.77h15.754c-7.0625 7.3516-16.859 14.859-29.777 22.355-11.227-6.5117-20.09-13.031-26.855-19.453h-12.793c-0.80469 0-1.4531-0.64844-1.4531-1.4492 0-0.80078 0.64844-1.4492 1.4531-1.4492h22.883l2.0742 5.0898c0.23438 0.57422 0.80469 0.9375 1.4297 0.89844 0.62109-0.035157 1.1445-0.46094 1.3125-1.0586l2.6016-9.3555 6.3711 17.699c0.20703 0.57812 0.75781 0.96094 1.3633 0.96094 0.042969 0 0.089843-0.003906 0.13281-0.007812 0.65625-0.058594 1.1953-0.55859 1.2969-1.2109l3.3789-20.562 4.2109 14.07c0.19141 0.625 0.77344 1.0508 1.4297 1.0352s1.2148-0.46875 1.3711-1.1016l2.0508-8.2656 0.45703 0.97656c0.24219 0.50781 0.75781 0.82812 1.3125 0.82812zm27.078-4.3516c0 0.80078-0.64844 1.4492-1.4531 1.4492h-24.703l-1.8203-3.8164c-0.25781-0.55469-0.83984-0.88281-1.4531-0.82031-0.60547 0.0625-1.1133 0.5-1.2617 1.0938l-1.7422 7.0547-4.5039-15.008c-0.19141-0.64844-0.80469-1.0742-1.4766-1.0312-0.67188 0.042968-1.2305 0.54688-1.3359 1.2148l-3.4883 21.25-6.0234-16.73c-0.21484-0.59766-0.78906-0.98438-1.4219-0.96094-0.63281 0.023438-1.1719 0.45312-1.3477 1.0625l-2.6836 9.6562-0.83984-2.0625c-0.22266-0.54688-0.75781-0.90234-1.3477-0.90234h-16.641c-9.3125-10.715-12.852-21.039-11.844-30.422 2.2891-21.207 26.391-33.145 44.285-9.8555 17.895-23.289 41.996-11.352 44.277 9.8555 0.91797 8.5312-1.9297 17.844-9.4531 27.52h4.8242c0.80469 0 1.4531 0.64844 1.4531 1.4492zm-7.8867-18.727c2.75 0 4.9844-2.2383 4.9844-4.9883s-2.2344-4.9883-4.9844-4.9883h-1.0898v-6.3711c0-2.4609-2.0039-4.4609-4.4609-4.4609h-1.8945c-0.65625 0-1.2812 0.14063-1.8398 0.39453-0.63281-1.6953-2.2695-2.9062-4.1797-2.9062h-1.8945c-2.4609 0-4.4609 2-4.4609 4.4609v8.8828h-26.785v-8.8828c0-2.4609-2.0039-4.4609-4.4609-4.4609h-1.8945c-1.9141 0-3.5508 1.2109-4.1797 2.9062-0.5625-0.25391-1.1836-0.39844-1.8398-0.39844h-1.8945c-2.4609 0-4.4609 2-4.4609 4.4609v6.3711h-1.0898c-2.75 0-4.9922 2.2383-4.9922 4.9883s2.2422 4.9883 4.9922 4.9883h1.0898v6.3711c0 2.4609 2.0039 4.4609 4.4609 4.4609h1.8945c0.65625 0 1.2773-0.14062 1.8398-0.39844 0.63281 1.6953 2.2695 2.9062 4.1797 2.9062h1.8945c2.4609 0 4.4609-2 4.4609-4.4609v-8.8828h26.785v8.8828c0 2.4609 2.0039 4.4609 4.4609 4.4609h1.8945c1.9102 0 3.5469-1.2109 4.1797-2.9062 0.5625 0.25391 1.1836 0.39453 1.8398 0.39453h1.8945c2.457 0 4.4609-2 4.4609-4.4609v-6.3711h1.0898zm-51.066-20.41h-1.8945c-0.86328 0-1.5625 0.69922-1.5625 1.5586v27.738c0 0.85938 0.69922 1.5586 1.5625 1.5586h1.8945c0.85547 0 1.5547-0.69922 1.5547-1.5586v-27.738c0-0.85938-0.69922-1.5586-1.5547-1.5586zm-7.9141 2.5078h-1.8945c-0.85547 0-1.5547 0.69922-1.5547 1.5586v22.719c0 0.85938 0.69922 1.5586 1.5547 1.5586h1.8945c0.86328 0 1.5625-0.69922 1.5625-1.5586v-22.719c0-0.85938-0.69922-1.5586-1.5625-1.5586zm-9.5273 12.918c0 1.1484 0.9375 2.0859 2.0859 2.0859h1.0898v-4.168h-1.0898c-1.1445 0-2.0859 0.93359-2.0859 2.0859zm62.961-12.918h-1.8945c-0.86328 0-1.5625 0.69922-1.5625 1.5586v22.719c0 0.85938 0.69922 1.5586 1.5625 1.5586h1.8945c0.85547 0 1.5547-0.69922 1.5547-1.5586v-22.719c0-0.85938-0.69922-1.5586-1.5547-1.5586zm5.5469 10.832h-1.0898v4.168h1.0898c1.1445 0 2.0859-0.93359 2.0859-2.0859 0-1.1484-0.9375-2.0859-2.0859-2.0859zm-46.605 4.168h26.785v-4.168h-26.785zm33.141-17.508h-1.8945c-0.85547 0-1.5547 0.69922-1.5547 1.5586v27.738c0 0.85938 0.69922 1.5586 1.5547 1.5586h1.8945c0.86328 0 1.5625-0.69922 1.5625-1.5586v-27.738c0-0.85938-0.69922-1.5586-1.5625-1.5586z"/>

  </g><g data-name="business_name" fill="#FFFFFF" data="id:292" transform="translate(155.1681922966206, 144.80752460472831) scale(1.5301490397071287)"><path d="M2.12,48l0-32l4.86,0q2.72,0,3.94,1.2t1.34,3.98q0.08,2.66,0.08,4.78t-0.08,4.36q-0.12,2.76-1.35,3.96t-3.95,1.2l-2.2,0l0,12.52l-2.64,0z M4.76,33.1l2.2,0q1.36,0,1.97-0.64t0.67-2.04q0.06-1.58,0.08-3.13t0-3.1t-0.08-3.13q-0.06-1.38-0.66-2.02t-1.96-0.64l-2.22,0l0,14.7z M20.5,48.26q-2.72,0-3.9-1.13t-1.3-3.73q-0.04-1.62-0.06-3.49t-0.02-3.85t0.02-3.88t0.06-3.54q0.12-2.64,1.33-3.77t3.85-1.13q2.56,0,3.71,1.11t1.29,3.69q0.02,0.62,0.04,1.82t0.01,2.79t-0.09,3.41l-7.56,0q0,1.64,0.03,3.38t0.05,3.7q0.04,1.44,0.62,1.98t1.88,0.54q1.26,0,1.8-0.54t0.6-1.98q0.04-0.74,0.04-1.72t-0.04-2.18l2.58,0q0.06,0.9,0.07,1.89t-0.03,1.77q-0.14,2.6-1.24,3.73t-3.74,1.13z M17.88,34.5l5.02,0q0.02-1.28,0.02-2.51t-0.02-2.21t-0.04-1.48q-0.06-1.32-0.61-1.89t-1.77-0.57q-1.32,0-1.9,0.57t-0.62,1.89q-0.02,1.72-0.04,3.23t-0.04,2.97z M32.66,48.26q-1.94,0-2.86-1.14t-1.1-3.4q-0.02-0.5-0.04-1.02t0-1q0.1-1.4,0.48-2.54t1.23-2.08t2.33-1.8q0.86-0.5,1.78-0.96t1.84-0.86l0-5.1q0-1.32-0.5-1.92t-1.8-0.6q-1.14,0-1.7,0.52t-0.62,1.94q-0.02,0.46-0.03,1.15t0,1.42t0.03,1.31l-2.58,0q-0.02-0.8-0.04-1.82t0-1.82q0.06-1.7,0.58-2.76t1.6-1.55t2.84-0.49q1.84,0,2.89,0.53t1.5,1.66t0.45,2.95l0,19.12l-2.64,0l0-2.16l-0.44,0q-0.44,1.14-1.16,1.78t-2.04,0.64z M33.54,46.2q1.02,0,1.71-0.59t1.07-1.73l0-8.22q-0.7,0.28-1.43,0.66t-1.63,1.06q-1.14,0.84-1.52,1.89t-0.44,2.43q-0.02,0.36-0.01,0.86t0.03,1q0.1,1.26,0.68,1.95t1.54,0.69z M43.2,48l0-24l2.66,0l0,2.28l0.56,0q0.34-1.32,1.07-1.83t1.97-0.51q0.32,0,0.67,0.02t0.59,0.02l0,2.14l-1.24,0q-1.68,0-2.49,0.62t-1.13,2.02l0,19.24l-2.66,0z M53.08,48l0-32l2.66,0l0,32l-2.66,0z M61.34,56.14q-0.52,0-1.26-0.07t-1.24-0.15l0-2.08q0.46,0.06,1.16,0.11t1.3,0.05q1.46,0,1.98-0.56t0.72-2l0.44-3.44l-2.3,0l-3.14-24l2.7,0l1.14,11.7l1.18,10.2l1.06,0l1.18-10.2l1.14-11.7l2.72,0l-3.48,27.28q-0.24,1.72-0.79,2.8t-1.64,1.57t-2.87,0.49z M72.96,48l0-32l9.02,0l0,2.4l-6.38,0l0,12.3l5.98,0l0,2.38l-5.98,0l0,14.92l-2.64,0z M84.04,19.2l0-3.2l4.2,0l0,3.2l-4.2,0z M84.82,48l0-24l2.64,0l0,24l-2.64,0z M97.1,48.28q-2.78,0-3.83-1.14t-1.05-3.74l0-17.28l-1.66,0l0-2.12l1.7,0l0-6.8l2.66,0l0,6.8l3.56,0l0,2.12l-3.62,0l0,17.54q0,1.44,0.4,1.98t1.9,0.54q0.56,0,0.92-0.03t0.8-0.11l0,2.04q-0.38,0.08-0.84,0.14t-0.94,0.06z M101.36,48l0-24l2.66,0l0,2.14l0.58,0q0.56-1.16,1.37-1.79t2.15-0.63q1.88,0,2.82,1.1t0.96,3.66l0,19.52l-2.64,0l0-19.7q-0.02-1.34-0.51-1.92t-1.57-0.58q-1.04,0-1.9,0.63t-1.26,1.81l0,19.76l-2.66,0z M121.06,48.26q-2.72,0-3.9-1.13t-1.3-3.73q-0.04-1.62-0.06-3.49t-0.02-3.85t0.02-3.88t0.06-3.54q0.12-2.64,1.33-3.77t3.85-1.13q2.56,0,3.71,1.11t1.29,3.69q0.02,0.62,0.04,1.82t0.01,2.79t-0.09,3.41l-7.56,0q0,1.64,0.03,3.38t0.05,3.7q0.04,1.44,0.62,1.98t1.88,0.54q1.26,0,1.8-0.54t0.6-1.98q0.04-0.74,0.04-1.72t-0.04-2.18l2.58,0q0.06,0.9,0.07,1.89t-0.03,1.77q-0.14,2.6-1.24,3.73t-3.74,1.13z M118.44,34.5l5.02,0q0.02-1.28,0.02-2.51t-0.02-2.21t-0.04-1.48q-0.06-1.32-0.61-1.89t-1.77-0.57q-1.32,0-1.9,0.57t-0.62,1.89q-0.02,1.72-0.04,3.23t-0.04,2.97z M134.02,48.28q-2.6,0-3.65-1.14t-1.13-3.74q-0.02-0.78-0.02-1.76t0.06-1.88l2.38,0q-0.04,1.18-0.04,2.14t0.02,1.74q0.04,1.46,0.57,1.99t1.81,0.53q1.36,0,1.93-0.53t0.59-1.99q0.02-0.58,0.03-1.03t0.02-0.89t-0.01-0.96q-0.04-1.5-0.37-2.28t-1.35-1.12l-1.88-0.64q-1.38-0.46-2.2-1.15t-1.17-1.8t-0.41-2.87q-0.02-0.62,0-1.14t0.04-1.12q0.02-2.64,1.1-3.78t3.82-1.14q2.6,0,3.64,1.12t1.12,3.72q0.02,0.78,0.01,1.74t-0.05,1.88l-2.44,0q0.02-0.68,0.03-1.38t0-1.36t-0.03-1.14q-0.02-1.42-0.51-1.94t-1.77-0.52q-1.3,0-1.79,0.52t-0.53,1.94q-0.02,0.7-0.04,1.2t0,1.22q0.02,1.5,0.29,2.42t1.43,1.32l1.78,0.56q1.92,0.58,2.85,1.83t0.93,3.79q0,0.66-0.01,1.41t-0.05,1.41q-0.06,2.56-1.17,3.69t-3.83,1.13z M146.88,48.28q-2.6,0-3.65-1.14t-1.13-3.74q-0.02-0.78-0.02-1.76t0.06-1.88l2.38,0q-0.04,1.18-0.04,2.14t0.02,1.74q0.04,1.46,0.57,1.99t1.81,0.53q1.36,0,1.93-0.53t0.59-1.99q0.02-0.58,0.03-1.03t0.02-0.89t-0.01-0.96q-0.04-1.5-0.37-2.28t-1.35-1.12l-1.88-0.64q-1.38-0.46-2.2-1.15t-1.17-1.8t-0.41-2.87q-0.02-0.62,0-1.14t0.04-1.12q0.02-2.64,1.1-3.78t3.82-1.14q2.6,0,3.64,1.12t1.12,3.72q0.02,0.78,0.01,1.74t-0.05,1.88l-2.44,0q0.02-0.68,0.03-1.38t0-1.36t-0.03-1.14q-0.02-1.42-0.51-1.94t-1.77-0.52q-1.3,0-1.79,0.52t-0.53,1.94q-0.02,0.7-0.04,1.2t0,1.22q0.02,1.5,0.29,2.42t1.43,1.32l1.78,0.56q1.92,0.58,2.85,1.83t0.93,3.79q0,0.66-0.01,1.41t-0.05,1.41q-0.06,2.56-1.17,3.69t-3.83,1.13z"/></g></svg>